ply
format ascii 1.0
element vertex 168
property float x      
property float y           
property float z 
element face 252  
property list uchar int vertex_index
end_header
2.1198446528463997 -0.7554045872854038 -0.5530733952504832
2.1198446528463997 -0.7554045872854038 -0.1530733952504832
2.1198446528463997 0.8445954127145963 -0.1530733952504832
2.1198446528463997 0.8445954127145963 -0.5530733952504832
3.7198446528463993 -0.7554045872854038 -0.5530733952504832
3.7198446528463993 -0.7554045872854038 -0.1530733952504832
3.7198446528463993 0.8445954127145963 -0.1530733952504832
3.7198446528463993 0.8445954127145963 -0.5530733952504832
-0.45625559347476896 2.0597083068222437 -0.4559829176660291
-0.45625559347476896 2.0597083068222437 -0.055982917666029086
-0.45625559347476896 3.6597083068222442 -0.055982917666029086
-0.45625559347476896 3.6597083068222442 -0.4559829176660291
1.1437444065252311 2.0597083068222437 -0.4559829176660291
1.1437444065252311 2.0597083068222437 -0.055982917666029086
1.1437444065252311 3.6597083068222442 -0.055982917666029086
1.1437444065252311 3.6597083068222442 -0.4559829176660291
-0.7905290884887755 1.5257676755457383 -0.49742894554308587
-0.7905290884887755 1.5257676755457383 -0.09742894554308584
-0.7905290884887755 3.125767675545738 -0.09742894554308584
-0.7905290884887755 3.125767675545738 -0.49742894554308587
0.8094709115112246 1.5257676755457383 -0.49742894554308587
0.8094709115112246 1.5257676755457383 -0.09742894554308584
0.8094709115112246 3.125767675545738 -0.09742894554308584
0.8094709115112246 3.125767675545738 -0.49742894554308587
-0.49439626019552463 1.2085735473332024 -0.5837430654292066
-0.49439626019552463 1.2085735473332024 -0.18374306542920654
-0.49439626019552463 2.8085735473332027 -0.18374306542920654
-0.49439626019552463 2.8085735473332027 -0.5837430654292066
1.1056037398044753 1.2085735473332024 -0.5837430654292066
1.1056037398044753 1.2085735473332024 -0.18374306542920654
1.1056037398044753 2.8085735473332027 -0.18374306542920654
1.1056037398044753 2.8085735473332027 -0.5837430654292066
0.5570215703031918 -0.14487001294912383 -0.5913056488450985
0.5570215703031918 -0.14487001294912383 -0.19130564884509843
0.5570215703031918 1.4551299870508763 -0.19130564884509843
0.5570215703031918 1.4551299870508763 -0.5913056488450985
2.1570215703031916 -0.14487001294912383 -0.5913056488450985
2.1570215703031916 -0.14487001294912383 -0.19130564884509843
2.1570215703031916 1.4551299870508763 -0.19130564884509843
2.1570215703031916 1.4551299870508763 -0.5913056488450985
1.4018405382808063 1.749316609615889 -0.5295746308294536
1.4018405382808063 1.749316609615889 -0.12957463082945353
1.4018405382808063 3.3493166096158893 -0.12957463082945353
1.4018405382808063 3.3493166096158893 -0.5295746308294536
3.001840538280806 1.749316609615889 -0.5295746308294536
3.001840538280806 1.749316609615889 -0.12957463082945353
3.001840538280806 3.3493166096158893 -0.12957463082945353
3.001840538280806 3.3493166096158893 -0.5295746308294536
-0.7131087475727385 1.6407099089723858 -0.36648380603579633
-0.7131087475727385 1.6407099089723858 0.03351619396420369
-0.7131087475727385 3.240709908972386 0.03351619396420369
-0.7131087475727385 3.240709908972386 -0.36648380603579633
0.8868912524272616 1.6407099089723858 -0.36648380603579633
0.8868912524272616 1.6407099089723858 0.03351619396420369
0.8868912524272616 3.240709908972386 0.03351619396420369
0.8868912524272616 3.240709908972386 -0.36648380603579633
1.2447906103711375 0.946361009070767 -0.3767728391099312
1.2447906103711375 0.946361009070767 0.023227160890068793
1.2447906103711375 2.5463610090707673 0.023227160890068793
1.2447906103711375 2.5463610090707673 -0.3767728391099312
2.8447906103711373 0.946361009070767 -0.3767728391099312
2.8447906103711373 0.946361009070767 0.023227160890068793
2.8447906103711373 2.5463610090707673 0.023227160890068793
2.8447906103711373 2.5463610090707673 -0.3767728391099312
0.5492235637382805 2.0579278243177725 -0.36669556505057965
0.5492235637382805 2.0579278243177725 0.0333044349494204
0.5492235637382805 3.657927824317772 0.0333044349494204
0.5492235637382805 3.657927824317772 -0.36669556505057965
2.1492235637382806 2.0579278243177725 -0.36669556505057965
2.1492235637382806 2.0579278243177725 0.0333044349494204
2.1492235637382806 3.657927824317772 0.0333044349494204
2.1492235637382806 3.657927824317772 -0.36669556505057965
0.4467361692931098 1.8281268940805753 -0.2854821543198897
0.4467361692931098 1.8281268940805753 0.11451784568011031
0.4467361692931098 3.4281268940805756 0.11451784568011031
0.4467361692931098 3.4281268940805756 -0.2854821543198897
2.04673616929311 1.8281268940805753 -0.2854821543198897
2.04673616929311 1.8281268940805753 0.11451784568011031
2.04673616929311 3.4281268940805756 0.11451784568011031
2.04673616929311 3.4281268940805756 -0.2854821543198897
-0.3355461664282592 0.6526402078700297 -0.35103390890887054
-0.3355461664282592 0.6526402078700297 0.04896609109112951
-0.3355461664282592 2.25264020787003 0.04896609109112951
-0.3355461664282592 2.25264020787003 -0.35103390890887054
1.264453833571741 0.6526402078700297 -0.35103390890887054
1.264453833571741 0.6526402078700297 0.04896609109112951
1.264453833571741 2.25264020787003 0.04896609109112951
1.264453833571741 2.25264020787003 -0.35103390890887054
1.1354704065775996 -0.22281626084850736 -0.38316173765118333
1.1354704065775996 -0.22281626084850736 0.016838262348816718
1.1354704065775996 1.3771837391514927 0.016838262348816718
1.1354704065775996 1.3771837391514927 -0.38316173765118333
2.7354704065775994 -0.22281626084850736 -0.38316173765118333
2.7354704065775994 -0.22281626084850736 0.016838262348816718
2.7354704065775994 1.3771837391514927 0.016838262348816718
2.7354704065775994 1.3771837391514927 -0.38316173765118333
0.6906402197104657 1.3966347361923848 -0.44854929498037915
0.6906402197104657 1.3966347361923848 -0.04854929498037913
0.6906402197104657 2.9966347361923846 -0.04854929498037913
0.6906402197104657 2.9966347361923846 -0.44854929498037915
2.2906402197104656 1.3966347361923848 -0.44854929498037915
2.2906402197104656 1.3966347361923848 -0.04854929498037913
2.2906402197104656 2.9966347361923846 -0.04854929498037913
2.2906402197104656 2.9966347361923846 -0.44854929498037915
0.9389379674596541 0.5860711146093329 -0.28434413910186523
0.9389379674596541 0.5860711146093329 0.11565586089813479
0.9389379674596541 2.186071114609333 0.11565586089813479
0.9389379674596541 2.186071114609333 -0.28434413910186523
2.5389379674596544 0.5860711146093329 -0.28434413910186523
2.5389379674596544 0.5860711146093329 0.11565586089813479
2.5389379674596544 2.186071114609333 0.11565586089813479
2.5389379674596544 2.186071114609333 -0.28434413910186523
1.2443770451949099 1.7482643236268223 -0.24824288173603049
1.2443770451949099 1.7482643236268223 0.15175711826396954
1.2443770451949099 3.3482643236268226 0.15175711826396954
1.2443770451949099 3.3482643236268226 -0.24824288173603049
2.8443770451949097 1.7482643236268223 -0.24824288173603049
2.8443770451949097 1.7482643236268223 0.15175711826396954
2.8443770451949097 3.3482643236268226 0.15175711826396954
2.8443770451949097 3.3482643236268226 -0.24824288173603049
-0.46769375280128933 -0.009197462478121587 -0.22420134336201358
-0.46769375280128933 -0.009197462478121587 0.17579865663798644
-0.46769375280128933 1.5908025375218786 0.17579865663798644
-0.46769375280128933 1.5908025375218786 -0.22420134336201358
1.1323062471987106 -0.009197462478121587 -0.22420134336201358
1.1323062471987106 -0.009197462478121587 0.17579865663798644
1.1323062471987106 1.5908025375218786 0.17579865663798644
1.1323062471987106 1.5908025375218786 -0.22420134336201358
0.3211307381555024 1.8342842531097967 -0.4826016378844072
0.3211307381555024 1.8342842531097967 -0.08260163788440716
0.3211307381555024 3.434284253109797 -0.08260163788440716
0.3211307381555024 3.434284253109797 -0.4826016378844072
1.9211307381555025 1.8342842531097967 -0.4826016378844072
1.9211307381555025 1.8342842531097967 -0.08260163788440716
1.9211307381555025 3.434284253109797 -0.08260163788440716
1.9211307381555025 3.434284253109797 -0.4826016378844072
1.7662246964038755 1.579822464898603 -0.4518569861536274
1.7662246964038755 1.579822464898603 -0.05185698615362738
1.7662246964038755 3.179822464898603 -0.05185698615362738
1.7662246964038755 3.179822464898603 -0.4518569861536274
3.366224696403876 1.579822464898603 -0.4518569861536274
3.366224696403876 1.579822464898603 -0.05185698615362738
3.366224696403876 3.179822464898603 -0.05185698615362738
3.366224696403876 3.179822464898603 -0.4518569861536274
-0.4394226409272348 0.22167238842750292 -0.5252009932623334
-0.4394226409272348 0.22167238842750292 -0.1252009932623333
-0.4394226409272348 1.821672388427503 -0.1252009932623333
-0.4394226409272348 1.821672388427503 -0.5252009932623334
1.1605773590727653 0.22167238842750292 -0.5252009932623334
1.1605773590727653 0.22167238842750292 -0.1252009932623333
1.1605773590727653 1.821672388427503 -0.1252009932623333
1.1605773590727653 1.821672388427503 -0.5252009932623334
1.716243162630643 0.4465385396148325 -0.2513637769940203
1.716243162630643 0.4465385396148325 0.14863622300597973
1.716243162630643 2.046538539614833 0.14863622300597973
1.716243162630643 2.046538539614833 -0.2513637769940203
3.3162431626306432 0.4465385396148325 -0.2513637769940203
3.3162431626306432 0.4465385396148325 0.14863622300597973
3.3162431626306432 2.046538539614833 0.14863622300597973
3.3162431626306432 2.046538539614833 -0.2513637769940203
-3.5 -3.5 -0.30000000000000004
-3.5 -3.5 -0.1
-3.5 3.5 -0.1
-3.5 3.5 -0.30000000000000004
3.5 -3.5 -0.30000000000000004
3.5 -3.5 -0.1
3.5 3.5 -0.1
3.5 3.5 -0.30000000000000004
3 0 1 2 
3 0 2 3 
3 7 6 5 
3 7 5 4 
3 0 4 5 
3 0 5 1 
3 1 5 6 
3 1 6 2 
3 2 6 7 
3 2 7 3 
3 3 7 4 
3 3 4 0 
3 8 9 10 
3 8 10 11 
3 15 14 13 
3 15 13 12 
3 8 12 13 
3 8 13 9 
3 9 13 14 
3 9 14 10 
3 10 14 15 
3 10 15 11 
3 11 15 12 
3 11 12 8 
3 16 17 18 
3 16 18 19 
3 23 22 21 
3 23 21 20 
3 16 20 21 
3 16 21 17 
3 17 21 22 
3 17 22 18 
3 18 22 23 
3 18 23 19 
3 19 23 20 
3 19 20 16 
3 24 25 26 
3 24 26 27 
3 31 30 29 
3 31 29 28 
3 24 28 29 
3 24 29 25 
3 25 29 30 
3 25 30 26 
3 26 30 31 
3 26 31 27 
3 27 31 28 
3 27 28 24 
3 32 33 34 
3 32 34 35 
3 39 38 37 
3 39 37 36 
3 32 36 37 
3 32 37 33 
3 33 37 38 
3 33 38 34 
3 34 38 39 
3 34 39 35 
3 35 39 36 
3 35 36 32 
3 40 41 42 
3 40 42 43 
3 47 46 45 
3 47 45 44 
3 40 44 45 
3 40 45 41 
3 41 45 46 
3 41 46 42 
3 42 46 47 
3 42 47 43 
3 43 47 44 
3 43 44 40 
3 48 49 50 
3 48 50 51 
3 55 54 53 
3 55 53 52 
3 48 52 53 
3 48 53 49 
3 49 53 54 
3 49 54 50 
3 50 54 55 
3 50 55 51 
3 51 55 52 
3 51 52 48 
3 56 57 58 
3 56 58 59 
3 63 62 61 
3 63 61 60 
3 56 60 61 
3 56 61 57 
3 57 61 62 
3 57 62 58 
3 58 62 63 
3 58 63 59 
3 59 63 60 
3 59 60 56 
3 64 65 66 
3 64 66 67 
3 71 70 69 
3 71 69 68 
3 64 68 69 
3 64 69 65 
3 65 69 70 
3 65 70 66 
3 66 70 71 
3 66 71 67 
3 67 71 68 
3 67 68 64 
3 72 73 74 
3 72 74 75 
3 79 78 77 
3 79 77 76 
3 72 76 77 
3 72 77 73 
3 73 77 78 
3 73 78 74 
3 74 78 79 
3 74 79 75 
3 75 79 76 
3 75 76 72 
3 80 81 82 
3 80 82 83 
3 87 86 85 
3 87 85 84 
3 80 84 85 
3 80 85 81 
3 81 85 86 
3 81 86 82 
3 82 86 87 
3 82 87 83 
3 83 87 84 
3 83 84 80 
3 88 89 90 
3 88 90 91 
3 95 94 93 
3 95 93 92 
3 88 92 93 
3 88 93 89 
3 89 93 94 
3 89 94 90 
3 90 94 95 
3 90 95 91 
3 91 95 92 
3 91 92 88 
3 96 97 98 
3 96 98 99 
3 103 102 101 
3 103 101 100 
3 96 100 101 
3 96 101 97 
3 97 101 102 
3 97 102 98 
3 98 102 103 
3 98 103 99 
3 99 103 100 
3 99 100 96 
3 104 105 106 
3 104 106 107 
3 111 110 109 
3 111 109 108 
3 104 108 109 
3 104 109 105 
3 105 109 110 
3 105 110 106 
3 106 110 111 
3 106 111 107 
3 107 111 108 
3 107 108 104 
3 112 113 114 
3 112 114 115 
3 119 118 117 
3 119 117 116 
3 112 116 117 
3 112 117 113 
3 113 117 118 
3 113 118 114 
3 114 118 119 
3 114 119 115 
3 115 119 116 
3 115 116 112 
3 120 121 122 
3 120 122 123 
3 127 126 125 
3 127 125 124 
3 120 124 125 
3 120 125 121 
3 121 125 126 
3 121 126 122 
3 122 126 127 
3 122 127 123 
3 123 127 124 
3 123 124 120 
3 128 129 130 
3 128 130 131 
3 135 134 133 
3 135 133 132 
3 128 132 133 
3 128 133 129 
3 129 133 134 
3 129 134 130 
3 130 134 135 
3 130 135 131 
3 131 135 132 
3 131 132 128 
3 136 137 138 
3 136 138 139 
3 143 142 141 
3 143 141 140 
3 136 140 141 
3 136 141 137 
3 137 141 142 
3 137 142 138 
3 138 142 143 
3 138 143 139 
3 139 143 140 
3 139 140 136 
3 144 145 146 
3 144 146 147 
3 151 150 149 
3 151 149 148 
3 144 148 149 
3 144 149 145 
3 145 149 150 
3 145 150 146 
3 146 150 151 
3 146 151 147 
3 147 151 148 
3 147 148 144 
3 152 153 154 
3 152 154 155 
3 159 158 157 
3 159 157 156 
3 152 156 157 
3 152 157 153 
3 153 157 158 
3 153 158 154 
3 154 158 159 
3 154 159 155 
3 155 159 156 
3 155 156 152 
3 160 161 162 
3 160 162 163 
3 167 166 165 
3 167 165 164 
3 160 164 165 
3 160 165 161 
3 161 165 166 
3 161 166 162 
3 162 166 167 
3 162 167 163 
3 163 167 164 
3 163 164 160 
