ply
format ascii 1.0
element vertex 488
property float x      
property float y           
property float z 
element face 732  
property list uchar int vertex_index
end_header
0.8623969988596925 1.9523558629731192 -0.23754301132417321
0.8623969988596925 1.9523558629731192 -0.07754301132417322
0.8623969988596925 2.552355862973119 -0.07754301132417322
0.8623969988596925 2.552355862973119 -0.23754301132417321
1.4623969988596925 1.9523558629731192 -0.23754301132417321
1.4623969988596925 1.9523558629731192 -0.07754301132417322
1.4623969988596925 2.552355862973119 -0.07754301132417322
1.4623969988596925 2.552355862973119 -0.23754301132417321
0.0517136986492755 -1.8553838168541992 -0.21773580949121712
0.0517136986492755 -1.8553838168541992 -0.057735809491217135
0.0517136986492755 -1.255383816854199 -0.057735809491217135
0.0517136986492755 -1.255383816854199 -0.21773580949121712
0.6517136986492755 -1.8553838168541992 -0.21773580949121712
0.6517136986492755 -1.8553838168541992 -0.057735809491217135
0.6517136986492755 -1.255383816854199 -0.057735809491217135
0.6517136986492755 -1.255383816854199 -0.21773580949121712
0.8625949678351577 2.6069894088662027 -0.1146197876921486
0.8625949678351577 2.6069894088662027 0.0453802123078514
0.8625949678351577 3.2069894088662023 0.0453802123078514
0.8625949678351577 3.2069894088662023 -0.1146197876921486
1.4625949678351577 2.6069894088662027 -0.1146197876921486
1.4625949678351577 2.6069894088662027 0.0453802123078514
1.4625949678351577 3.2069894088662023 0.0453802123078514
1.4625949678351577 3.2069894088662023 -0.1146197876921486
-0.05202882578368101 -3.1697238827299525 -0.12714409130341742
-0.05202882578368101 -3.1697238827299525 0.03285590869658257
-0.05202882578368101 -2.569723882729953 0.03285590869658257
-0.05202882578368101 -2.569723882729953 -0.12714409130341742
0.5479711742163189 -3.1697238827299525 -0.12714409130341742
0.5479711742163189 -3.1697238827299525 0.03285590869658257
0.5479711742163189 -2.569723882729953 0.03285590869658257
0.5479711742163189 -2.569723882729953 -0.12714409130341742
2.0725171731793104 -1.877692453769086 -0.16093060148319754
2.0725171731793104 -1.877692453769086 -0.0009306014831975268
2.0725171731793104 -1.277692453769086 -0.0009306014831975268
2.0725171731793104 -1.277692453769086 -0.16093060148319754
2.67251717317931 -1.877692453769086 -0.16093060148319754
2.67251717317931 -1.877692453769086 -0.0009306014831975268
2.67251717317931 -1.277692453769086 -0.0009306014831975268
2.67251717317931 -1.277692453769086 -0.16093060148319754
1.0471243381488018 -1.8768541079924528 -0.11081937288981449
1.0471243381488018 -1.8768541079924528 0.04918062711018552
1.0471243381488018 -1.2768541079924527 0.04918062711018552
1.0471243381488018 -1.2768541079924527 -0.11081937288981449
1.6471243381488019 -1.8768541079924528 -0.11081937288981449
1.6471243381488019 -1.8768541079924528 0.04918062711018552
1.6471243381488019 -1.2768541079924527 0.04918062711018552
1.6471243381488019 -1.2768541079924527 -0.11081937288981449
0.9474961581845955 1.1562600866339856 -0.23912654110989245
0.9474961581845955 1.1562600866339856 -0.07912654110989244
0.9474961581845955 1.7562600866339857 -0.07912654110989244
0.9474961581845955 1.7562600866339857 -0.23912654110989245
1.5474961581845956 1.1562600866339856 -0.23912654110989245
1.5474961581845956 1.1562600866339856 -0.07912654110989244
1.5474961581845956 1.7562600866339857 -0.07912654110989244
1.5474961581845956 1.7562600866339857 -0.23912654110989245
1.3714599868897477 0.92060222233209 -0.22437905073705922
1.3714599868897477 0.92060222233209 -0.06437905073705923
1.3714599868897477 1.52060222233209 -0.06437905073705923
1.3714599868897477 1.52060222233209 -0.22437905073705922
1.9714599868897478 0.92060222233209 -0.22437905073705922
1.9714599868897478 0.92060222233209 -0.06437905073705923
1.9714599868897478 1.52060222233209 -0.06437905073705923
1.9714599868897478 1.52060222233209 -0.22437905073705922
1.0176401474292882 -1.631750319263061 -0.13568705398733247
1.0176401474292882 -1.631750319263061 0.024312946012667536
1.0176401474292882 -1.0317503192630608 0.024312946012667536
1.0176401474292882 -1.0317503192630608 -0.13568705398733247
1.6176401474292883 -1.631750319263061 -0.13568705398733247
1.6176401474292883 -1.631750319263061 0.024312946012667536
1.6176401474292883 -1.0317503192630608 0.024312946012667536
1.6176401474292883 -1.0317503192630608 -0.13568705398733247
2.1445719254312 0.49202681151615196 -0.1752947180414806
2.1445719254312 0.49202681151615196 -0.015294718041480596
2.1445719254312 1.092026811516152 -0.015294718041480596
2.1445719254312 1.092026811516152 -0.1752947180414806
2.7445719254311998 0.49202681151615196 -0.1752947180414806
2.7445719254311998 0.49202681151615196 -0.015294718041480596
2.7445719254311998 1.092026811516152 -0.015294718041480596
2.7445719254311998 1.092026811516152 -0.1752947180414806
2.2285403884088772 0.9280994990869542 -0.16249225110746662
2.2285403884088772 0.9280994990869542 -0.002492251107466606
2.2285403884088772 1.5280994990869543 -0.002492251107466606
2.2285403884088772 1.5280994990869543 -0.16249225110746662
2.828540388408877 0.9280994990869542 -0.16249225110746662
2.828540388408877 0.9280994990869542 -0.002492251107466606
2.828540388408877 1.5280994990869543 -0.002492251107466606
2.828540388408877 1.5280994990869543 -0.16249225110746662
2.565126754396494 -0.40870409199416285 -0.23128141480029413
2.565126754396494 -0.40870409199416285 -0.07128141480029411
2.565126754396494 0.19129590800583712 -0.07128141480029411
2.565126754396494 0.19129590800583712 -0.23128141480029413
3.1651267543964936 -0.40870409199416285 -0.23128141480029413
3.1651267543964936 -0.40870409199416285 -0.07128141480029411
3.1651267543964936 0.19129590800583712 -0.07128141480029411
3.1651267543964936 0.19129590800583712 -0.23128141480029413
1.505518504795898 2.071473006122676 -0.164068126733563
1.505518504795898 2.071473006122676 -0.004068126733562993
1.505518504795898 2.6714730061226755 -0.004068126733562993
1.505518504795898 2.6714730061226755 -0.164068126733563
2.105518504795898 2.071473006122676 -0.164068126733563
2.105518504795898 2.071473006122676 -0.004068126733562993
2.105518504795898 2.6714730061226755 -0.004068126733562993
2.105518504795898 2.6714730061226755 -0.164068126733563
1.7851833427226678 -1.679887827481714 -0.2277526665688548
1.7851833427226678 -1.679887827481714 -0.06775266656885477
1.7851833427226678 -1.0798878274817139 -0.06775266656885477
1.7851833427226678 -1.0798878274817139 -0.2277526665688548
2.3851833427226676 -1.679887827481714 -0.2277526665688548
2.3851833427226676 -1.679887827481714 -0.06775266656885477
2.3851833427226676 -1.0798878274817139 -0.06775266656885477
2.3851833427226676 -1.0798878274817139 -0.2277526665688548
2.609104839925333 -0.005756742906782353 -0.19461844857894328
2.609104839925333 -0.005756742906782353 -0.034618448578943264
2.609104839925333 0.5942432570932177 -0.034618448578943264
2.609104839925333 0.5942432570932177 -0.19461844857894328
3.209104839925333 -0.005756742906782353 -0.19461844857894328
3.209104839925333 -0.005756742906782353 -0.034618448578943264
3.209104839925333 0.5942432570932177 -0.034618448578943264
3.209104839925333 0.5942432570932177 -0.19461844857894328
2.3511814584085267 -1.24692258093297 -0.15541913858241335
2.3511814584085267 -1.24692258093297 0.004580861417586665
2.3511814584085267 -0.64692258093297 0.004580861417586665
2.3511814584085267 -0.64692258093297 -0.15541913858241335
2.9511814584085263 -1.24692258093297 -0.15541913858241335
2.9511814584085263 -1.24692258093297 0.004580861417586665
2.9511814584085263 -0.64692258093297 0.004580861417586665
2.9511814584085263 -0.64692258093297 -0.15541913858241335
1.865424288377587 -1.591713220508112 -0.1825263653480395
1.865424288377587 -1.591713220508112 -0.022526365348039493
1.865424288377587 -0.9917132205081118 -0.022526365348039493
1.865424288377587 -0.9917132205081118 -0.1825263653480395
2.4654242883775868 -1.591713220508112 -0.1825263653480395
2.4654242883775868 -1.591713220508112 -0.022526365348039493
2.4654242883775868 -0.9917132205081118 -0.022526365348039493
2.4654242883775868 -0.9917132205081118 -0.1825263653480395
1.9161343967055264 -0.7386106580168368 -0.14781733970944688
1.9161343967055264 -0.7386106580168368 0.012182660290553121
1.9161343967055264 -0.13861065801683675 0.012182660290553121
1.9161343967055264 -0.13861065801683675 -0.14781733970944688
2.5161343967055263 -0.7386106580168368 -0.14781733970944688
2.5161343967055263 -0.7386106580168368 0.012182660290553121
2.5161343967055263 -0.13861065801683675 0.012182660290553121
2.5161343967055263 -0.13861065801683675 -0.14781733970944688
1.3265990480163021 0.5858703643043655 -0.19925318539901526
1.3265990480163021 0.5858703643043655 -0.03925318539901525
1.3265990480163021 1.1858703643043655 -0.03925318539901525
1.3265990480163021 1.1858703643043655 -0.19925318539901526
1.9265990480163022 0.5858703643043655 -0.19925318539901526
1.9265990480163022 0.5858703643043655 -0.03925318539901525
1.9265990480163022 1.1858703643043655 -0.03925318539901525
1.9265990480163022 1.1858703643043655 -0.19925318539901526
0.020990443758745314 -0.5480945150835856 -0.08200624334724409
0.020990443758745314 -0.5480945150835856 0.07799375665275592
0.020990443758745314 0.05190548491641439 0.07799375665275592
0.020990443758745314 0.05190548491641439 -0.08200624334724409
0.6209904437587452 -0.5480945150835856 -0.08200624334724409
0.6209904437587452 -0.5480945150835856 0.07799375665275592
0.6209904437587452 0.05190548491641439 0.07799375665275592
0.6209904437587452 0.05190548491641439 -0.08200624334724409
1.0023441505636697 -3.154475266210036 -0.1816416239582701
1.0023441505636697 -3.154475266210036 -0.021641623958270087
1.0023441505636697 -2.5544752662100363 -0.021641623958270087
1.0023441505636697 -2.5544752662100363 -0.1816416239582701
1.6023441505636697 -3.154475266210036 -0.1816416239582701
1.6023441505636697 -3.154475266210036 -0.021641623958270087
1.6023441505636697 -2.5544752662100363 -0.021641623958270087
1.6023441505636697 -2.5544752662100363 -0.1816416239582701
1.4663506698890243 -0.10225987085284521 -0.09838581914045362
1.4663506698890243 -0.10225987085284521 0.06161418085954638
1.4663506698890243 0.49774012914715476 0.06161418085954638
1.4663506698890243 0.49774012914715476 -0.09838581914045362
2.066350669889024 -0.10225987085284521 -0.09838581914045362
2.066350669889024 -0.10225987085284521 0.06161418085954638
2.066350669889024 0.49774012914715476 0.06161418085954638
2.066350669889024 0.49774012914715476 -0.09838581914045362
0.2594644411379898 -0.22320820048739226 -0.19941701712208026
0.2594644411379898 -0.22320820048739226 -0.03941701712208025
0.2594644411379898 0.3767917995126077 -0.03941701712208025
0.2594644411379898 0.3767917995126077 -0.19941701712208026
0.8594644411379897 -0.22320820048739226 -0.19941701712208026
0.8594644411379897 -0.22320820048739226 -0.03941701712208025
0.8594644411379897 0.3767917995126077 -0.03941701712208025
0.8594644411379897 0.3767917995126077 -0.19941701712208026
0.23470038668294407 -1.1721697773139648 -0.14543466037479785
0.23470038668294407 -1.1721697773139648 0.014565339625202164
0.23470038668294407 -0.5721697773139647 0.014565339625202164
0.23470038668294407 -0.5721697773139647 -0.14543466037479785
0.8347003866829441 -1.1721697773139648 -0.14543466037479785
0.8347003866829441 -1.1721697773139648 0.014565339625202164
0.8347003866829441 -0.5721697773139647 0.014565339625202164
0.8347003866829441 -0.5721697773139647 -0.14543466037479785
0.8784040419103039 0.5373074641985205 -0.19531513264116088
0.8784040419103039 0.5373074641985205 -0.035315132641160873
0.8784040419103039 1.1373074641985206 -0.035315132641160873
0.8784040419103039 1.1373074641985206 -0.19531513264116088
1.478404041910304 0.5373074641985205 -0.19531513264116088
1.478404041910304 0.5373074641985205 -0.035315132641160873
1.478404041910304 1.1373074641985206 -0.035315132641160873
1.478404041910304 1.1373074641985206 -0.19531513264116088
0.31942464908597107 2.3582236640429306 -0.203713895724493
0.31942464908597107 2.3582236640429306 -0.04371389572449298
0.31942464908597107 2.9582236640429302 -0.04371389572449298
0.31942464908597107 2.9582236640429302 -0.203713895724493
0.919424649085971 2.3582236640429306 -0.203713895724493
0.919424649085971 2.3582236640429306 -0.04371389572449298
0.919424649085971 2.9582236640429302 -0.04371389572449298
0.919424649085971 2.9582236640429302 -0.203713895724493
1.793039577122584 -2.001909959091596 -0.0984868487717848
1.793039577122584 -2.001909959091596 0.0615131512282152
1.793039577122584 -1.4019099590915958 0.0615131512282152
1.793039577122584 -1.4019099590915958 -0.0984868487717848
2.393039577122584 -2.001909959091596 -0.0984868487717848
2.393039577122584 -2.001909959091596 0.0615131512282152
2.393039577122584 -1.4019099590915958 0.0615131512282152
2.393039577122584 -1.4019099590915958 -0.0984868487717848
0.1337777985357092 -0.9172063247568725 -0.1611359487481907
0.1337777985357092 -0.9172063247568725 -0.0011359487481907155
0.1337777985357092 -0.31720632475687244 -0.0011359487481907155
0.1337777985357092 -0.31720632475687244 -0.1611359487481907
0.7337777985357092 -0.9172063247568725 -0.1611359487481907
0.7337777985357092 -0.9172063247568725 -0.0011359487481907155
0.7337777985357092 -0.31720632475687244 -0.0011359487481907155
0.7337777985357092 -0.31720632475687244 -0.1611359487481907
-0.15019330447250606 -2.579127980237708 -0.1518662501137783
-0.15019330447250606 -2.579127980237708 0.008133749886221703
-0.15019330447250606 -1.9791279802377082 0.008133749886221703
-0.15019330447250606 -1.9791279802377082 -0.1518662501137783
0.4498066955274939 -2.579127980237708 -0.1518662501137783
0.4498066955274939 -2.579127980237708 0.008133749886221703
0.4498066955274939 -1.9791279802377082 0.008133749886221703
0.4498066955274939 -1.9791279802377082 -0.1518662501137783
1.6289840142128906 -0.9450510739219726 -0.21992710441677754
1.6289840142128906 -0.9450510739219726 -0.05992710441677755
1.6289840142128906 -0.3450510739219726 -0.05992710441677755
1.6289840142128906 -0.3450510739219726 -0.21992710441677754
2.2289840142128905 -0.9450510739219726 -0.21992710441677754
2.2289840142128905 -0.9450510739219726 -0.05992710441677755
2.2289840142128905 -0.3450510739219726 -0.05992710441677755
2.2289840142128905 -0.3450510739219726 -0.21992710441677754
0.4723472842861987 -2.0270447127211058 -0.10641439568130386
0.4723472842861987 -2.0270447127211058 0.05358560431869615
0.4723472842861987 -1.427044712721106 0.05358560431869615
0.4723472842861987 -1.427044712721106 -0.10641439568130386
1.0723472842861987 -2.0270447127211058 -0.10641439568130386
1.0723472842861987 -2.0270447127211058 0.05358560431869615
1.0723472842861987 -1.427044712721106 0.05358560431869615
1.0723472842861987 -1.427044712721106 -0.10641439568130386
0.6916362364753315 -1.3590970961708195 -0.08338775234221578
0.6916362364753315 -1.3590970961708195 0.07661224765778422
0.6916362364753315 -0.7590970961708194 0.07661224765778422
0.6916362364753315 -0.7590970961708194 -0.08338775234221578
1.2916362364753313 -1.3590970961708195 -0.08338775234221578
1.2916362364753313 -1.3590970961708195 0.07661224765778422
1.2916362364753313 -0.7590970961708194 0.07661224765778422
1.2916362364753313 -0.7590970961708194 -0.08338775234221578
0.33845558695989003 0.8907596276942511 -0.09779390547879431
0.33845558695989003 0.8907596276942511 0.06220609452120569
0.33845558695989003 1.4907596276942512 0.06220609452120569
0.33845558695989003 1.4907596276942512 -0.09779390547879431
0.9384555869598901 0.8907596276942511 -0.09779390547879431
0.9384555869598901 0.8907596276942511 0.06220609452120569
0.9384555869598901 1.4907596276942512 0.06220609452120569
0.9384555869598901 1.4907596276942512 -0.09779390547879431
0.6670420610162164 1.3494712532443038 -0.190728109887835
0.6670420610162164 1.3494712532443038 -0.030728109887835003
0.6670420610162164 1.949471253244304 -0.030728109887835003
0.6670420610162164 1.949471253244304 -0.190728109887835
1.2670420610162163 1.3494712532443038 -0.190728109887835
1.2670420610162163 1.3494712532443038 -0.030728109887835003
1.2670420610162163 1.949471253244304 -0.030728109887835003
1.2670420610162163 1.949471253244304 -0.190728109887835
2.2326271076495185 0.5145328193527663 -0.20256209205044656
2.2326271076495185 0.5145328193527663 -0.042562092050446546
2.2326271076495185 1.1145328193527664 -0.042562092050446546
2.2326271076495185 1.1145328193527664 -0.20256209205044656
2.832627107649518 0.5145328193527663 -0.20256209205044656
2.832627107649518 0.5145328193527663 -0.042562092050446546
2.832627107649518 1.1145328193527664 -0.042562092050446546
2.832627107649518 1.1145328193527664 -0.20256209205044656
-0.10380665759504087 0.7098709784661617 -0.18647122710625413
-0.10380665759504087 0.7098709784661617 -0.026471227106254144
-0.10380665759504087 1.3098709784661617 -0.026471227106254144
-0.10380665759504087 1.3098709784661617 -0.18647122710625413
0.4961933424049591 0.7098709784661617 -0.18647122710625413
0.4961933424049591 0.7098709784661617 -0.026471227106254144
0.4961933424049591 1.3098709784661617 -0.026471227106254144
0.4961933424049591 1.3098709784661617 -0.18647122710625413
-0.10316548240805862 -1.6101607560706201 -0.21085878375026995
-0.10316548240805862 -1.6101607560706201 -0.05085878375026996
-0.10316548240805862 -1.01016075607062 -0.05085878375026996
-0.10316548240805862 -1.01016075607062 -0.21085878375026995
0.49683451759194136 -1.6101607560706201 -0.21085878375026995
0.49683451759194136 -1.6101607560706201 -0.05085878375026996
0.49683451759194136 -1.01016075607062 -0.05085878375026996
0.49683451759194136 -1.01016075607062 -0.21085878375026995
2.1292994077280416 -3.1427200458891047 -0.10625314679115282
2.1292994077280416 -3.1427200458891047 0.05374685320884719
2.1292994077280416 -2.542720045889105 0.05374685320884719
2.1292994077280416 -2.542720045889105 -0.10625314679115282
2.7292994077280412 -3.1427200458891047 -0.10625314679115282
2.7292994077280412 -3.1427200458891047 0.05374685320884719
2.7292994077280412 -2.542720045889105 0.05374685320884719
2.7292994077280412 -2.542720045889105 -0.10625314679115282
0.6575578645314126 2.0817400585945807 -0.20483616423871212
0.6575578645314126 2.0817400585945807 -0.04483616423871212
0.6575578645314126 2.6817400585945803 -0.04483616423871212
0.6575578645314126 2.6817400585945803 -0.20483616423871212
1.2575578645314125 2.0817400585945807 -0.20483616423871212
1.2575578645314125 2.0817400585945807 -0.04483616423871212
1.2575578645314125 2.6817400585945803 -0.04483616423871212
1.2575578645314125 2.6817400585945803 -0.20483616423871212
2.235462666863443 -0.4801001849423276 -0.17432866094090138
2.235462666863443 -0.4801001849423276 -0.014328660940901378
2.235462666863443 0.11989981505767239 -0.014328660940901378
2.235462666863443 0.11989981505767239 -0.17432866094090138
2.835462666863443 -0.4801001849423276 -0.17432866094090138
2.835462666863443 -0.4801001849423276 -0.014328660940901378
2.835462666863443 0.11989981505767239 -0.014328660940901378
2.835462666863443 0.11989981505767239 -0.17432866094090138
0.36682733561490316 -2.1688285044976827 -0.2064498807249211
0.36682733561490316 -2.1688285044976827 -0.04644988072492108
0.36682733561490316 -1.5688285044976829 -0.04644988072492108
0.36682733561490316 -1.5688285044976829 -0.2064498807249211
0.9668273356149031 -2.1688285044976827 -0.2064498807249211
0.9668273356149031 -2.1688285044976827 -0.04644988072492108
0.9668273356149031 -1.5688285044976829 -0.04644988072492108
0.9668273356149031 -1.5688285044976829 -0.2064498807249211
2.4596180452852017 1.7188710089661583 -0.23381577644463658
2.4596180452852017 1.7188710089661583 -0.07381577644463656
2.4596180452852017 2.318871008966158 -0.07381577644463656
2.4596180452852017 2.318871008966158 -0.23381577644463658
3.0596180452852013 1.7188710089661583 -0.23381577644463658
3.0596180452852013 1.7188710089661583 -0.07381577644463656
3.0596180452852013 2.318871008966158 -0.07381577644463656
3.0596180452852013 2.318871008966158 -0.23381577644463658
0.7919564060432964 2.4244772127734278 -0.2354978181452248
0.7919564060432964 2.4244772127734278 -0.07549781814522478
0.7919564060432964 3.0244772127734274 -0.07549781814522478
0.7919564060432964 3.0244772127734274 -0.2354978181452248
1.3919564060432965 2.4244772127734278 -0.2354978181452248
1.3919564060432965 2.4244772127734278 -0.07549781814522478
1.3919564060432965 3.0244772127734274 -0.07549781814522478
1.3919564060432965 3.0244772127734274 -0.2354978181452248
2.4311657860640605 -1.7829150271114291 -0.15824210620682028
2.4311657860640605 -1.7829150271114291 0.0017578937931797406
2.4311657860640605 -1.182915027111429 0.0017578937931797406
2.4311657860640605 -1.182915027111429 -0.15824210620682028
3.03116578606406 -1.7829150271114291 -0.15824210620682028
3.03116578606406 -1.7829150271114291 0.0017578937931797406
3.03116578606406 -1.182915027111429 0.0017578937931797406
3.03116578606406 -1.182915027111429 -0.15824210620682028
-0.18657319690237778 0.7351203278393734 -0.09745037338897423
-0.18657319690237778 0.7351203278393734 0.06254962661102577
-0.18657319690237778 1.3351203278393735 0.06254962661102577
-0.18657319690237778 1.3351203278393735 -0.09745037338897423
0.4134268030976222 0.7351203278393734 -0.09745037338897423
0.4134268030976222 0.7351203278393734 0.06254962661102577
0.4134268030976222 1.3351203278393735 0.06254962661102577
0.4134268030976222 1.3351203278393735 -0.09745037338897423
2.2584643875409727 -0.4560231050807661 -0.11149231170666794
2.2584643875409727 -0.4560231050807661 0.04850768829333206
2.2584643875409727 0.14397689491923388 0.04850768829333206
2.2584643875409727 0.14397689491923388 -0.11149231170666794
2.8584643875409723 -0.4560231050807661 -0.11149231170666794
2.8584643875409723 -0.4560231050807661 0.04850768829333206
2.8584643875409723 0.14397689491923388 0.04850768829333206
2.8584643875409723 0.14397689491923388 -0.11149231170666794
2.4467360757465535 -1.400658338597784 -0.1595678354884046
2.4467360757465535 -1.400658338597784 0.0004321645115953898
2.4467360757465535 -0.8006583385977839 0.0004321645115953898
2.4467360757465535 -0.8006583385977839 -0.1595678354884046
3.046736075746553 -1.400658338597784 -0.1595678354884046
3.046736075746553 -1.400658338597784 0.0004321645115953898
3.046736075746553 -0.8006583385977839 0.0004321645115953898
3.046736075746553 -0.8006583385977839 -0.1595678354884046
2.468555619476379 -1.2475124729457108 -0.09040489019765986
2.468555619476379 -1.2475124729457108 0.06959510980234014
2.468555619476379 -0.6475124729457107 0.06959510980234014
2.468555619476379 -0.6475124729457107 -0.09040489019765986
3.0685556194763786 -1.2475124729457108 -0.09040489019765986
3.0685556194763786 -1.2475124729457108 0.06959510980234014
3.0685556194763786 -0.6475124729457107 0.06959510980234014
3.0685556194763786 -0.6475124729457107 -0.09040489019765986
2.366506535464568 -0.3332907212444686 -0.16825799796801538
2.366506535464568 -0.3332907212444686 -0.00825799796801538
2.366506535464568 0.26670927875553135 -0.00825799796801538
2.366506535464568 0.26670927875553135 -0.16825799796801538
2.9665065354645677 -0.3332907212444686 -0.16825799796801538
2.9665065354645677 -0.3332907212444686 -0.00825799796801538
2.9665065354645677 0.26670927875553135 -0.00825799796801538
2.9665065354645677 0.26670927875553135 -0.16825799796801538
-0.15505247692168073 -1.9694451201865297 -0.14966433060778533
-0.15505247692168073 -1.9694451201865297 0.01033566939221467
-0.15505247692168073 -1.3694451201865296 0.01033566939221467
-0.15505247692168073 -1.3694451201865296 -0.14966433060778533
0.44494752307831925 -1.9694451201865297 -0.14966433060778533
0.44494752307831925 -1.9694451201865297 0.01033566939221467
0.44494752307831925 -1.3694451201865296 0.01033566939221467
0.44494752307831925 -1.3694451201865296 -0.14966433060778533
1.0969548586837454 -2.6879886888116187 -0.20551735328467285
1.0969548586837454 -2.6879886888116187 -0.045517353284672865
1.0969548586837454 -2.087988688811619 -0.045517353284672865
1.0969548586837454 -2.087988688811619 -0.20551735328467285
1.6969548586837455 -2.6879886888116187 -0.20551735328467285
1.6969548586837455 -2.6879886888116187 -0.045517353284672865
1.6969548586837455 -2.087988688811619 -0.045517353284672865
1.6969548586837455 -2.087988688811619 -0.20551735328467285
1.4032655236280618 -0.410437603387477 -0.22949440201748267
1.4032655236280618 -0.410437603387477 -0.06949440201748265
1.4032655236280618 0.189562396612523 -0.06949440201748265
1.4032655236280618 0.189562396612523 -0.22949440201748267
2.0032655236280617 -0.410437603387477 -0.22949440201748267
2.0032655236280617 -0.410437603387477 -0.06949440201748265
2.0032655236280617 0.189562396612523 -0.06949440201748265
2.0032655236280617 0.189562396612523 -0.22949440201748267
-0.11409708695908233 0.0737081180920261 -0.17043906196152522
-0.11409708695908233 0.0737081180920261 -0.01043906196152522
-0.11409708695908233 0.6737081180920261 -0.01043906196152522
-0.11409708695908233 0.6737081180920261 -0.17043906196152522
0.48590291304091765 0.0737081180920261 -0.17043906196152522
0.48590291304091765 0.0737081180920261 -0.01043906196152522
0.48590291304091765 0.6737081180920261 -0.01043906196152522
0.48590291304091765 0.6737081180920261 -0.17043906196152522
2.43214010247217 0.3731887423928713 -0.23808863322275864
2.43214010247217 0.3731887423928713 -0.07808863322275865
2.43214010247217 0.9731887423928713 -0.07808863322275865
2.43214010247217 0.9731887423928713 -0.23808863322275864
3.0321401024721695 0.3731887423928713 -0.23808863322275864
3.0321401024721695 0.3731887423928713 -0.07808863322275865
3.0321401024721695 0.9731887423928713 -0.07808863322275865
3.0321401024721695 0.9731887423928713 -0.23808863322275864
0.6387916078337186 1.495822560830576 -0.20552955198533568
0.6387916078337186 1.495822560830576 -0.04552955198533569
0.6387916078337186 2.095822560830576 -0.04552955198533569
0.6387916078337186 2.095822560830576 -0.20552955198533568
1.2387916078337187 1.495822560830576 -0.20552955198533568
1.2387916078337187 1.495822560830576 -0.04552955198533569
1.2387916078337187 2.095822560830576 -0.04552955198533569
1.2387916078337187 2.095822560830576 -0.20552955198533568
1.306444928552333 2.3277442394157903 -0.15788815819320795
1.306444928552333 2.3277442394157903 0.002111841806792067
1.306444928552333 2.92774423941579 0.002111841806792067
1.306444928552333 2.92774423941579 -0.15788815819320795
1.906444928552333 2.3277442394157903 -0.15788815819320795
1.906444928552333 2.3277442394157903 0.002111841806792067
1.906444928552333 2.92774423941579 0.002111841806792067
1.906444928552333 2.92774423941579 -0.15788815819320795
0.6531055895889883 1.9660869541242094 -0.20044149313732257
0.6531055895889883 1.9660869541242094 -0.04044149313732258
0.6531055895889883 2.5660869541242093 -0.04044149313732258
0.6531055895889883 2.5660869541242093 -0.20044149313732257
1.2531055895889882 1.9660869541242094 -0.20044149313732257
1.2531055895889882 1.9660869541242094 -0.04044149313732258
1.2531055895889882 2.5660869541242093 -0.04044149313732258
1.2531055895889882 2.5660869541242093 -0.20044149313732257
1.0768375988431145 -3.1215478908092558 -0.2151619493840204
1.0768375988431145 -3.1215478908092558 -0.0551619493840204
1.0768375988431145 -2.521547890809256 -0.0551619493840204
1.0768375988431145 -2.521547890809256 -0.2151619493840204
1.6768375988431146 -3.1215478908092558 -0.2151619493840204
1.6768375988431146 -3.1215478908092558 -0.0551619493840204
1.6768375988431146 -2.521547890809256 -0.0551619493840204
1.6768375988431146 -2.521547890809256 -0.2151619493840204
2.3418044233362822 0.7391422767235853 -0.20347172148209708
2.3418044233362822 0.7391422767235853 -0.04347172148209709
2.3418044233362822 1.3391422767235854 -0.04347172148209709
2.3418044233362822 1.3391422767235854 -0.20347172148209708
2.941804423336282 0.7391422767235853 -0.20347172148209708
2.941804423336282 0.7391422767235853 -0.04347172148209709
2.941804423336282 1.3391422767235854 -0.04347172148209709
2.941804423336282 1.3391422767235854 -0.20347172148209708
2.4928814762380043 -1.469444873947429 -0.10738791624153289
2.4928814762380043 -1.469444873947429 0.05261208375846711
2.4928814762380043 -0.869444873947429 0.05261208375846711
2.4928814762380043 -0.869444873947429 -0.10738791624153289
3.092881476238004 -1.469444873947429 -0.10738791624153289
3.092881476238004 -1.469444873947429 0.05261208375846711
3.092881476238004 -0.869444873947429 0.05261208375846711
3.092881476238004 -0.869444873947429 -0.10738791624153289
-3.5 -3.5 -0.30000000000000004
-3.5 -3.5 -0.1
-3.5 3.5 -0.1
-3.5 3.5 -0.30000000000000004
3.5 -3.5 -0.30000000000000004
3.5 -3.5 -0.1
3.5 3.5 -0.1
3.5 3.5 -0.30000000000000004
3 0 1 2 
3 0 2 3 
3 7 6 5 
3 7 5 4 
3 0 4 5 
3 0 5 1 
3 1 5 6 
3 1 6 2 
3 2 6 7 
3 2 7 3 
3 3 7 4 
3 3 4 0 
3 8 9 10 
3 8 10 11 
3 15 14 13 
3 15 13 12 
3 8 12 13 
3 8 13 9 
3 9 13 14 
3 9 14 10 
3 10 14 15 
3 10 15 11 
3 11 15 12 
3 11 12 8 
3 16 17 18 
3 16 18 19 
3 23 22 21 
3 23 21 20 
3 16 20 21 
3 16 21 17 
3 17 21 22 
3 17 22 18 
3 18 22 23 
3 18 23 19 
3 19 23 20 
3 19 20 16 
3 24 25 26 
3 24 26 27 
3 31 30 29 
3 31 29 28 
3 24 28 29 
3 24 29 25 
3 25 29 30 
3 25 30 26 
3 26 30 31 
3 26 31 27 
3 27 31 28 
3 27 28 24 
3 32 33 34 
3 32 34 35 
3 39 38 37 
3 39 37 36 
3 32 36 37 
3 32 37 33 
3 33 37 38 
3 33 38 34 
3 34 38 39 
3 34 39 35 
3 35 39 36 
3 35 36 32 
3 40 41 42 
3 40 42 43 
3 47 46 45 
3 47 45 44 
3 40 44 45 
3 40 45 41 
3 41 45 46 
3 41 46 42 
3 42 46 47 
3 42 47 43 
3 43 47 44 
3 43 44 40 
3 48 49 50 
3 48 50 51 
3 55 54 53 
3 55 53 52 
3 48 52 53 
3 48 53 49 
3 49 53 54 
3 49 54 50 
3 50 54 55 
3 50 55 51 
3 51 55 52 
3 51 52 48 
3 56 57 58 
3 56 58 59 
3 63 62 61 
3 63 61 60 
3 56 60 61 
3 56 61 57 
3 57 61 62 
3 57 62 58 
3 58 62 63 
3 58 63 59 
3 59 63 60 
3 59 60 56 
3 64 65 66 
3 64 66 67 
3 71 70 69 
3 71 69 68 
3 64 68 69 
3 64 69 65 
3 65 69 70 
3 65 70 66 
3 66 70 71 
3 66 71 67 
3 67 71 68 
3 67 68 64 
3 72 73 74 
3 72 74 75 
3 79 78 77 
3 79 77 76 
3 72 76 77 
3 72 77 73 
3 73 77 78 
3 73 78 74 
3 74 78 79 
3 74 79 75 
3 75 79 76 
3 75 76 72 
3 80 81 82 
3 80 82 83 
3 87 86 85 
3 87 85 84 
3 80 84 85 
3 80 85 81 
3 81 85 86 
3 81 86 82 
3 82 86 87 
3 82 87 83 
3 83 87 84 
3 83 84 80 
3 88 89 90 
3 88 90 91 
3 95 94 93 
3 95 93 92 
3 88 92 93 
3 88 93 89 
3 89 93 94 
3 89 94 90 
3 90 94 95 
3 90 95 91 
3 91 95 92 
3 91 92 88 
3 96 97 98 
3 96 98 99 
3 103 102 101 
3 103 101 100 
3 96 100 101 
3 96 101 97 
3 97 101 102 
3 97 102 98 
3 98 102 103 
3 98 103 99 
3 99 103 100 
3 99 100 96 
3 104 105 106 
3 104 106 107 
3 111 110 109 
3 111 109 108 
3 104 108 109 
3 104 109 105 
3 105 109 110 
3 105 110 106 
3 106 110 111 
3 106 111 107 
3 107 111 108 
3 107 108 104 
3 112 113 114 
3 112 114 115 
3 119 118 117 
3 119 117 116 
3 112 116 117 
3 112 117 113 
3 113 117 118 
3 113 118 114 
3 114 118 119 
3 114 119 115 
3 115 119 116 
3 115 116 112 
3 120 121 122 
3 120 122 123 
3 127 126 125 
3 127 125 124 
3 120 124 125 
3 120 125 121 
3 121 125 126 
3 121 126 122 
3 122 126 127 
3 122 127 123 
3 123 127 124 
3 123 124 120 
3 128 129 130 
3 128 130 131 
3 135 134 133 
3 135 133 132 
3 128 132 133 
3 128 133 129 
3 129 133 134 
3 129 134 130 
3 130 134 135 
3 130 135 131 
3 131 135 132 
3 131 132 128 
3 136 137 138 
3 136 138 139 
3 143 142 141 
3 143 141 140 
3 136 140 141 
3 136 141 137 
3 137 141 142 
3 137 142 138 
3 138 142 143 
3 138 143 139 
3 139 143 140 
3 139 140 136 
3 144 145 146 
3 144 146 147 
3 151 150 149 
3 151 149 148 
3 144 148 149 
3 144 149 145 
3 145 149 150 
3 145 150 146 
3 146 150 151 
3 146 151 147 
3 147 151 148 
3 147 148 144 
3 152 153 154 
3 152 154 155 
3 159 158 157 
3 159 157 156 
3 152 156 157 
3 152 157 153 
3 153 157 158 
3 153 158 154 
3 154 158 159 
3 154 159 155 
3 155 159 156 
3 155 156 152 
3 160 161 162 
3 160 162 163 
3 167 166 165 
3 167 165 164 
3 160 164 165 
3 160 165 161 
3 161 165 166 
3 161 166 162 
3 162 166 167 
3 162 167 163 
3 163 167 164 
3 163 164 160 
3 168 169 170 
3 168 170 171 
3 175 174 173 
3 175 173 172 
3 168 172 173 
3 168 173 169 
3 169 173 174 
3 169 174 170 
3 170 174 175 
3 170 175 171 
3 171 175 172 
3 171 172 168 
3 176 177 178 
3 176 178 179 
3 183 182 181 
3 183 181 180 
3 176 180 181 
3 176 181 177 
3 177 181 182 
3 177 182 178 
3 178 182 183 
3 178 183 179 
3 179 183 180 
3 179 180 176 
3 184 185 186 
3 184 186 187 
3 191 190 189 
3 191 189 188 
3 184 188 189 
3 184 189 185 
3 185 189 190 
3 185 190 186 
3 186 190 191 
3 186 191 187 
3 187 191 188 
3 187 188 184 
3 192 193 194 
3 192 194 195 
3 199 198 197 
3 199 197 196 
3 192 196 197 
3 192 197 193 
3 193 197 198 
3 193 198 194 
3 194 198 199 
3 194 199 195 
3 195 199 196 
3 195 196 192 
3 200 201 202 
3 200 202 203 
3 207 206 205 
3 207 205 204 
3 200 204 205 
3 200 205 201 
3 201 205 206 
3 201 206 202 
3 202 206 207 
3 202 207 203 
3 203 207 204 
3 203 204 200 
3 208 209 210 
3 208 210 211 
3 215 214 213 
3 215 213 212 
3 208 212 213 
3 208 213 209 
3 209 213 214 
3 209 214 210 
3 210 214 215 
3 210 215 211 
3 211 215 212 
3 211 212 208 
3 216 217 218 
3 216 218 219 
3 223 222 221 
3 223 221 220 
3 216 220 221 
3 216 221 217 
3 217 221 222 
3 217 222 218 
3 218 222 223 
3 218 223 219 
3 219 223 220 
3 219 220 216 
3 224 225 226 
3 224 226 227 
3 231 230 229 
3 231 229 228 
3 224 228 229 
3 224 229 225 
3 225 229 230 
3 225 230 226 
3 226 230 231 
3 226 231 227 
3 227 231 228 
3 227 228 224 
3 232 233 234 
3 232 234 235 
3 239 238 237 
3 239 237 236 
3 232 236 237 
3 232 237 233 
3 233 237 238 
3 233 238 234 
3 234 238 239 
3 234 239 235 
3 235 239 236 
3 235 236 232 
3 240 241 242 
3 240 242 243 
3 247 246 245 
3 247 245 244 
3 240 244 245 
3 240 245 241 
3 241 245 246 
3 241 246 242 
3 242 246 247 
3 242 247 243 
3 243 247 244 
3 243 244 240 
3 248 249 250 
3 248 250 251 
3 255 254 253 
3 255 253 252 
3 248 252 253 
3 248 253 249 
3 249 253 254 
3 249 254 250 
3 250 254 255 
3 250 255 251 
3 251 255 252 
3 251 252 248 
3 256 257 258 
3 256 258 259 
3 263 262 261 
3 263 261 260 
3 256 260 261 
3 256 261 257 
3 257 261 262 
3 257 262 258 
3 258 262 263 
3 258 263 259 
3 259 263 260 
3 259 260 256 
3 264 265 266 
3 264 266 267 
3 271 270 269 
3 271 269 268 
3 264 268 269 
3 264 269 265 
3 265 269 270 
3 265 270 266 
3 266 270 271 
3 266 271 267 
3 267 271 268 
3 267 268 264 
3 272 273 274 
3 272 274 275 
3 279 278 277 
3 279 277 276 
3 272 276 277 
3 272 277 273 
3 273 277 278 
3 273 278 274 
3 274 278 279 
3 274 279 275 
3 275 279 276 
3 275 276 272 
3 280 281 282 
3 280 282 283 
3 287 286 285 
3 287 285 284 
3 280 284 285 
3 280 285 281 
3 281 285 286 
3 281 286 282 
3 282 286 287 
3 282 287 283 
3 283 287 284 
3 283 284 280 
3 288 289 290 
3 288 290 291 
3 295 294 293 
3 295 293 292 
3 288 292 293 
3 288 293 289 
3 289 293 294 
3 289 294 290 
3 290 294 295 
3 290 295 291 
3 291 295 292 
3 291 292 288 
3 296 297 298 
3 296 298 299 
3 303 302 301 
3 303 301 300 
3 296 300 301 
3 296 301 297 
3 297 301 302 
3 297 302 298 
3 298 302 303 
3 298 303 299 
3 299 303 300 
3 299 300 296 
3 304 305 306 
3 304 306 307 
3 311 310 309 
3 311 309 308 
3 304 308 309 
3 304 309 305 
3 305 309 310 
3 305 310 306 
3 306 310 311 
3 306 311 307 
3 307 311 308 
3 307 308 304 
3 312 313 314 
3 312 314 315 
3 319 318 317 
3 319 317 316 
3 312 316 317 
3 312 317 313 
3 313 317 318 
3 313 318 314 
3 314 318 319 
3 314 319 315 
3 315 319 316 
3 315 316 312 
3 320 321 322 
3 320 322 323 
3 327 326 325 
3 327 325 324 
3 320 324 325 
3 320 325 321 
3 321 325 326 
3 321 326 322 
3 322 326 327 
3 322 327 323 
3 323 327 324 
3 323 324 320 
3 328 329 330 
3 328 330 331 
3 335 334 333 
3 335 333 332 
3 328 332 333 
3 328 333 329 
3 329 333 334 
3 329 334 330 
3 330 334 335 
3 330 335 331 
3 331 335 332 
3 331 332 328 
3 336 337 338 
3 336 338 339 
3 343 342 341 
3 343 341 340 
3 336 340 341 
3 336 341 337 
3 337 341 342 
3 337 342 338 
3 338 342 343 
3 338 343 339 
3 339 343 340 
3 339 340 336 
3 344 345 346 
3 344 346 347 
3 351 350 349 
3 351 349 348 
3 344 348 349 
3 344 349 345 
3 345 349 350 
3 345 350 346 
3 346 350 351 
3 346 351 347 
3 347 351 348 
3 347 348 344 
3 352 353 354 
3 352 354 355 
3 359 358 357 
3 359 357 356 
3 352 356 357 
3 352 357 353 
3 353 357 358 
3 353 358 354 
3 354 358 359 
3 354 359 355 
3 355 359 356 
3 355 356 352 
3 360 361 362 
3 360 362 363 
3 367 366 365 
3 367 365 364 
3 360 364 365 
3 360 365 361 
3 361 365 366 
3 361 366 362 
3 362 366 367 
3 362 367 363 
3 363 367 364 
3 363 364 360 
3 368 369 370 
3 368 370 371 
3 375 374 373 
3 375 373 372 
3 368 372 373 
3 368 373 369 
3 369 373 374 
3 369 374 370 
3 370 374 375 
3 370 375 371 
3 371 375 372 
3 371 372 368 
3 376 377 378 
3 376 378 379 
3 383 382 381 
3 383 381 380 
3 376 380 381 
3 376 381 377 
3 377 381 382 
3 377 382 378 
3 378 382 383 
3 378 383 379 
3 379 383 380 
3 379 380 376 
3 384 385 386 
3 384 386 387 
3 391 390 389 
3 391 389 388 
3 384 388 389 
3 384 389 385 
3 385 389 390 
3 385 390 386 
3 386 390 391 
3 386 391 387 
3 387 391 388 
3 387 388 384 
3 392 393 394 
3 392 394 395 
3 399 398 397 
3 399 397 396 
3 392 396 397 
3 392 397 393 
3 393 397 398 
3 393 398 394 
3 394 398 399 
3 394 399 395 
3 395 399 396 
3 395 396 392 
3 400 401 402 
3 400 402 403 
3 407 406 405 
3 407 405 404 
3 400 404 405 
3 400 405 401 
3 401 405 406 
3 401 406 402 
3 402 406 407 
3 402 407 403 
3 403 407 404 
3 403 404 400 
3 408 409 410 
3 408 410 411 
3 415 414 413 
3 415 413 412 
3 408 412 413 
3 408 413 409 
3 409 413 414 
3 409 414 410 
3 410 414 415 
3 410 415 411 
3 411 415 412 
3 411 412 408 
3 416 417 418 
3 416 418 419 
3 423 422 421 
3 423 421 420 
3 416 420 421 
3 416 421 417 
3 417 421 422 
3 417 422 418 
3 418 422 423 
3 418 423 419 
3 419 423 420 
3 419 420 416 
3 424 425 426 
3 424 426 427 
3 431 430 429 
3 431 429 428 
3 424 428 429 
3 424 429 425 
3 425 429 430 
3 425 430 426 
3 426 430 431 
3 426 431 427 
3 427 431 428 
3 427 428 424 
3 432 433 434 
3 432 434 435 
3 439 438 437 
3 439 437 436 
3 432 436 437 
3 432 437 433 
3 433 437 438 
3 433 438 434 
3 434 438 439 
3 434 439 435 
3 435 439 436 
3 435 436 432 
3 440 441 442 
3 440 442 443 
3 447 446 445 
3 447 445 444 
3 440 444 445 
3 440 445 441 
3 441 445 446 
3 441 446 442 
3 442 446 447 
3 442 447 443 
3 443 447 444 
3 443 444 440 
3 448 449 450 
3 448 450 451 
3 455 454 453 
3 455 453 452 
3 448 452 453 
3 448 453 449 
3 449 453 454 
3 449 454 450 
3 450 454 455 
3 450 455 451 
3 451 455 452 
3 451 452 448 
3 456 457 458 
3 456 458 459 
3 463 462 461 
3 463 461 460 
3 456 460 461 
3 456 461 457 
3 457 461 462 
3 457 462 458 
3 458 462 463 
3 458 463 459 
3 459 463 460 
3 459 460 456 
3 464 465 466 
3 464 466 467 
3 471 470 469 
3 471 469 468 
3 464 468 469 
3 464 469 465 
3 465 469 470 
3 465 470 466 
3 466 470 471 
3 466 471 467 
3 467 471 468 
3 467 468 464 
3 472 473 474 
3 472 474 475 
3 479 478 477 
3 479 477 476 
3 472 476 477 
3 472 477 473 
3 473 477 478 
3 473 478 474 
3 474 478 479 
3 474 479 475 
3 475 479 476 
3 475 476 472 
3 480 481 482 
3 480 482 483 
3 487 486 485 
3 487 485 484 
3 480 484 485 
3 480 485 481 
3 481 485 486 
3 481 486 482 
3 482 486 487 
3 482 487 483 
3 483 487 484 
3 483 484 480 
